<svg xmlns="http://www.w3.org/2000/svg" fill="none" viewBox="0 0 800 450"><defs><linearGradient id="bgIoT" x1="0%" x2="100%" y1="0%" y2="100%"><stop offset="0%" stop-color="#050816"/><stop offset="50%" stop-color="#0a1936"/><stop offset="100%" stop-color="#021024"/></linearGradient><linearGradient id="cyanBlue" x1="0%" x2="100%" y1="0%" y2="0%"><stop offset="0%" stop-color="#155dfc"/><stop offset="100%" stop-color="#22d3ee"/></linearGradient></defs><rect width="800" height="450" fill="url(#bgIoT)"/><g stroke="#22d3ee" stroke-width="1" opacity=".15"><line x1="0" x2="800" y1="90" y2="90"/><line x1="0" x2="800" y1="180" y2="180"/><line x1="0" x2="800" y1="270" y2="270"/><line x1="0" x2="800" y1="360" y2="360"/><line x1="160" x2="160" y1="0" y2="450"/><line x1="320" x2="320" y1="0" y2="450"/><line x1="480" x2="480" y1="0" y2="450"/><line x1="640" x2="640" y1="0" y2="450"/></g><circle cx="580" cy="225" r="180" stroke="url(#cyanBlue)" stroke-dasharray="10 10" stroke-width="2" opacity=".3"/><circle cx="580" cy="225" r="120" stroke="url(#cyanBlue)" stroke-width="2" opacity=".5"/><circle cx="580" cy="225" r="60" stroke="#22d3ee" stroke-width="3" opacity=".8"/><circle cx="580" cy="225" r="16" fill="#22d3ee"/><circle cx="420" cy="140" r="8" fill="#155dfc"/><circle cx="480" cy="320" r="10" fill="#a855f7"/><circle cx="680" cy="120" r="7" fill="#22d3ee"/><line x1="580" x2="420" y1="225" y2="140" stroke="#22d3ee" stroke-width="2" opacity=".6"/><line x1="580" x2="480" y1="225" y2="320" stroke="#a855f7" stroke-width="2" opacity=".6"/><line x1="580" x2="680" y1="225" y2="120" stroke="#22d3ee" stroke-width="2" opacity=".6"/><rect width="130" height="32" x="60" y="60" fill="rgba(34, 211, 238, 0.15)" stroke="#22d3ee" stroke-width="1.5" rx="16"/><text x="125" y="81" fill="#22d3ee" font-family="sans-serif" font-size="13" font-weight="700" letter-spacing="1.5" text-anchor="middle">WORKSHOP</text><text x="60" y="160" fill="#fff" font-family="'Space Grotesk', 'Formata', sans-serif" font-size="42" font-weight="800">LoRaWAN &amp; IoT</text><text x="60" y="210" fill="#22d3ee" font-family="'Space Grotesk', 'Formata', sans-serif" font-size="34" font-weight="700">LPWAN Telemetry</text><text x="60" y="260" fill="#94a3b8" font-family="monospace" font-size="18">PROTOCOLOS: MQTT • SENSORS • GATEWAYS</text><text x="60" y="380" fill="#fff" font-family="'Share Tech Mono', monospace" font-size="20">15 OCTUBRE 2026 | IEEE COMSOC LAB</text></svg>