<svg xmlns="http://www.w3.org/2000/svg" width="480" height="186" fill="none" viewBox="0 0 480 186"><path fill="#00567d" d="m32.044 170.897-.213.154-5.322.087-.119-.178.961-4.088 1.562-6.465c1.055-4.602 1.352-6.049 2.226-10.375l.178-.179 5.354-.087.119.175c-1.325 5.175-1.625 6.409-2.855 11.878l-.902 4.245-.992 4.837zm18.123 0-.214.182h-7.757l-5.654.091-.15-.182 1.474-6.042 1.143-4.843c1.114-4.931 1.293-5.864 2.135-10.071l.21-.179h7.88l5.08-.087.182.175-.992 3.428-.213.182h-7.576l-1.112 4.815h3.369l4.03-.091.15.238-.962 3.25-.24.146h-7.095l-.45 1.926-.783 3.337h3.61l4.899-.119.15.182-1.111 3.669zm17.51 0-.213.182h-7.758l-5.654.091-.15-.182 1.475-6.042 1.142-4.843c1.115-4.931 1.293-5.864 2.136-10.071l.21-.179h7.88l5.08-.087.182.175-.993 3.428-.213.182h-7.576l-1.11 4.815h3.368l4.029-.091.15.238-.96 3.25-.242.146h-7.094l-.45 1.926-.783 3.337h3.61l4.899-.119.15.182-1.111 3.669zm17.515 0-.213.182H77.22l-5.654.091-.15-.182 1.47-6.042 1.143-4.843c1.112-4.931 1.29-5.864 2.135-10.071l.21-.179h7.88l5.081-.087.182.175-.993 3.428-.213.182h-7.576l-1.111 4.815h3.369l4.029-.091.154.238-.961 3.25-.241.146H78.88l-.451 1.926-.783 3.337h3.606l4.903-.119.15.182-1.11 3.669zm27.994-.664-.182.244c-.3.119-.57.266-.902.388-.779.304-2.376.664-4.116.664-2.376 0-5.263-.541-7.303-2.827-1.475-1.684-2.017-3.966-2.017-6.37 0-6.433 4.12-12.93 12.088-12.93.901 0 1.831.088 2.764.273 1.716.332 2.435.72 3.428 1.289l.091.245-1.143 3.882-.238.056a18 18 0 0 0-.814-.692c-.811-.545-2.104-.929-3.456-.929-5.081 0-7.307 5.109-7.307 8.533 0 3.425 1.926 5.445 5.228 5.445.692 0 1.352-.126 2.044-.301 1.171-.332 1.772-.727 2.705-1.352l.241.119-1.111 4.266zm16.427-.692c-1.715 1.415-3.669 1.894-5.954 1.894-1.562 0-3.666-.301-5.109-1.562-1.325-1.146-1.954-2.796-1.954-5.05 0-2.771 1.475-10.015 9.289-10.015 1.894 0 3.819.423 5.231 1.684 1.534 1.388 1.894 3.069 1.894 4.872 0 .992-.154 2.016-.391 3.012-.483 1.978-1.412 3.875-3.006 5.168zm-1.625-8.869c0-1.115-.36-2.673-2.131-2.673-1.412 0-2.135.842-2.464 1.23-1.143 1.471-1.775 4.906-1.775 6.286 0 .72.091 1.115.178 1.321.332.961 1.143 1.44 2.135 1.44.902 0 1.681-.538 2.195-1.171.332-.423.992-1.205 1.565-3.875.151-.755.301-1.629.301-2.562zm29.361 10.225-.213.154-4.9.118-.178-.209 1.262-5.263.51-2.17c.15-.657.604-2.796.604-3.274 0-.783-.391-1.625-1.534-1.625-1.142 0-1.925.629-2.435.996-.179 1.471-.238 1.831-.57 3.396l-.66 2.915-.993 4.962-.213.154-4.84.118-.15-.209 1.171-5.022.45-2.044c.542-2.583.633-3.191.633-3.638 0-1.565-1.115-1.625-1.506-1.625-.839 0-1.594.451-2.223.961l-1.02 4.543-1.384 6.762-.213.154-4.931.118-.15-.209 1.261-5.141.752-3.218c.692-3.211.783-3.82 1.233-6.821l.21-.185c2.135-.301 2.736-.388 5.053-.839l.178.206-.391 1.807c.451-.36.901-.692 1.384-.989.992-.57 2.376-.965 3.456-.965 1.593 0 2.708.696 3.246 2.135 1.562-1.202 3.397-2.135 5.382-2.135 1.443 0 4.119.601 4.119 3.914 0 .958-.241 1.95-.482 2.914l-.632 2.859-1.29 6.405zm26.914 0-.213.154-4.899.118-.178-.209 1.261-5.263.51-2.17c.151-.657.605-2.796.605-3.274 0-.783-.391-1.625-1.534-1.625s-1.926.629-2.436.996c-.178 1.471-.237 1.831-.569 3.396l-.661 2.915-.992 4.962-.213.154-4.84.118-.151-.209 1.171-5.022.451-2.044c.542-2.583.632-3.191.632-3.638 0-1.565-1.114-1.625-1.506-1.625-.838 0-1.593.451-2.222.961l-1.021 4.543-1.383 6.762-.214.154-4.93.118-.15-.209 1.261-5.141.751-3.218c.692-3.211.783-3.82 1.234-6.821l.21-.185c2.135-.301 2.736-.388 5.049-.839l.182.206-.392 1.807c.451-.36.902-.692 1.384-.989.993-.57 2.376-.965 3.456-.965 1.594 0 2.708.696 3.247 2.135 1.562-1.202 3.396-2.135 5.381-2.135 1.443 0 4.12.601 4.12 3.914 0 .958-.241 1.95-.482 2.914l-.633 2.859-1.293 6.405zm18.07-.035-.21.185-4.689.119-.15-.21.36-1.502c-1.353 1.289-3.156 1.953-4.749 1.953-1.716 0-4.152-.811-4.152-4.061 0-1.411.36-2.827.724-4.238l.691-2.978c.511-2.131.601-2.642.961-4.658l.21-.182 4.781-.237.15.237a152 152 0 0 1-.842 3.484c-.214.965-.451 1.926-.692 2.89-.269 1.084-.78 3.215-.78 4.236 0 1.114.752 1.715 1.681 1.715 1.202 0 2.013-.601 2.646-1.051l1.261-5.833 1.055-5.262.238-.182 4.84-.238.15.238-1.894 7.995-.664 3.013-.933 4.567zm18.234.035-.209.154-4.9.087-.15-.178 1.202-5.081.661-3.093c.122-.604.36-1.803.36-2.467 0-1.087-.78-1.684-1.622-1.684-.901 0-1.656.423-2.404.929-1.143 5.267-1.475 6.86-2.345 11.305l-.213.185-4.959.119-.118-.21 1.23-5.203.482-2.044c.814-3.757.961-4.602 1.412-7.908l.241-.238c2.285-.304 2.708-.36 5.018-.842l.213.206-.391 1.657c1.051-.755 2.495-1.804 4.721-1.804 1.862 0 4.057.902 4.057 3.942 0 1.353-.629 4.18-1.143 6.311l-.391 2.076-.752 3.788zm9.844-5.263c-.542 2.555-.632 3.187-.961 5.263l-.21.154-5.203.118-.15-.209c.902-3.519 1.083-4.208 1.953-8.055l.329-1.475c.573-2.585.692-3.249 1.024-5.626l.209-.213c2.527-.332 3.096-.419 5.291-.839l.178.207c-.72 2.918-.992 4.029-1.985 8.446l-.482 2.229zm3.005-13.74-.209.245-4.931.688-.182-.21.874-4.06.272-.213 4.959-.664.178.213zm12.441 14.911-.961 3.672-.178.206c-.301.119-.57.245-.874.332-.692.238-1.894.42-3.005.42-4.27 0-7.066-2.614-7.066-7.153 0-4.208 2.855-9.474 9.32-9.474.782 0 1.534.091 2.317.245 1.205.237 1.684.569 2.376.989l.059.209-1.02 3.425-.301.091a5.5 5.5 0 0 0-.541-.629c-.601-.538-1.594-.811-2.436-.811-2.827 0-4.599 2.886-4.599 5.647 0 2.946 1.866 3.879 3.397 3.879 1.712 0 2.733-.811 3.215-1.202l.3.147zm17.996-5.71c-1.142 4.871-1.352 5.951-1.953 9.802l-.213.153-4.54.119-.15-.181.213-1.321c-.51.45-.814.723-1.534 1.055-.901.419-1.862.664-2.855.664-1.75 0-3.281-.814-4.123-2.32-.482-.839-.814-2.104-.814-3.519 0-2.761 1.142-5.864 3.277-7.789 2.827-2.583 6.13-2.614 8.778-2.642h5.113l.175.237-1.381 5.745zm-4.235-2.649c-.755-.032-1.538-.059-2.289.119-3.246.842-4.211 4.63-4.211 6.43 0 2.62 1.538 2.984 2.254 2.984 1.115 0 1.751-.517 2.289-.968l1.957-8.569zm14.32 12.357-.244.244c-.958.175-1.681.332-2.702.332-2.585 0-4.542-.814-4.542-3.522 0-1.262.569-3.515.992-5.203l.992-4.12-2.107.063-.174-.238.866-3.04.213-.15h1.989l.87-3.883.206-.213c2.254-.507 2.858-.657 4.934-1.261l.178.185-.664 2.495-.656 2.736 3.064-.059.119.206c-.423 1.265-.542 1.597-.93 3.012l-.244.21-2.768-.063-1.261 5.266c-.178.657-.57 2.341-.57 2.855 0 .961.783 1.233 1.412 1.233.779 0 1.202-.185 1.744-.36l.178.147-.902 3.124zm8.412-5.169c-.542 2.555-.636 3.187-.968 5.263l-.207.154-5.203.118-.154-.209c.902-3.519 1.087-4.208 1.957-8.055l.329-1.475c.576-2.585.695-3.249 1.027-5.626l.206-.213c2.527-.332 3.096-.419 5.294-.839l.179.207c-.724 2.918-.989 4.029-1.985 8.446l-.479 2.229zm3.001-13.74-.206.245-4.931.688-.185-.21.874-4.06.272-.213 4.959-.664.185.213zm13.223 17.647c-1.716 1.415-3.669 1.894-5.951 1.894-1.565 0-3.669-.301-5.109-1.562-1.324-1.146-1.957-2.796-1.957-5.05 0-2.771 1.472-10.015 9.289-10.015 1.89 0 3.816.423 5.234 1.684 1.527 1.388 1.891 3.069 1.891 4.872 0 .992-.15 2.016-.391 3.012-.479 1.978-1.412 3.875-3.006 5.168zm-1.625-8.869c0-1.115-.36-2.673-2.135-2.673-1.408 0-2.135.842-2.463 1.23-1.147 1.471-1.772 4.906-1.772 6.286 0 .72.087 1.115.175 1.321.332.961 1.146 1.44 2.135 1.44.901 0 1.684-.538 2.194-1.171.332-.423.996-1.205 1.566-3.875.15-.755.3-1.629.3-2.562zm20.604 10.225-.206.154-4.903.087-.147-.178 1.202-5.081.657-3.093c.126-.604.364-1.803.364-2.467 0-1.087-.783-1.684-1.625-1.684-.902 0-1.653.423-2.405.929-1.142 5.267-1.474 6.86-2.348 11.305l-.213.185-4.959.119-.118-.21 1.23-5.203.482-2.044c.814-3.757.961-4.602 1.412-7.908l.237-.238c2.289-.304 2.708-.36 5.022-.842l.209.206-.391 1.657c1.048-.755 2.495-1.804 4.725-1.804 1.859 0 4.057.902 4.057 3.942 0 1.353-.629 4.18-1.143 6.311l-.391 2.076-.755 3.788zm3.232-1.202.933-3.222.273-.087c.569.629 1.862 1.956 4.179 1.956s2.586-1.324 2.586-1.743c0-1.021-.996-1.506-2.044-1.985l-.664-.332c-1.594-.811-3.131-1.744-3.131-4.12 0-.751.272-5.41 6.887-5.41 1.685 0 3.338.332 5.109 1.203l.119.272c-.479 1.559-.569 1.831-.901 3.212l-.294.062c-.276-.304-.542-.636-.901-.873-.755-.57-1.87-.874-2.709-.874-1.625 0-2.32.814-2.32 1.538 0 .901 1.055 1.408 1.838 1.771l.692.332c1.293.657 3.456 1.713 3.456 4.386 0 1.447-.751 5.685-7.366 5.685-3.065 0-4.686-.933-5.654-1.506l-.091-.265zm23.675-.214 1.02-3.788.301-.087c.391.451.664.779 1.38 1.199a6.95 6.95 0 0 0 3.491.964c2.163 0 3.82-1.087 3.82-2.74 0-1.474-1.325-2.222-2.768-2.977l-.996-.538c-1.558-.902-3.788-2.163-3.788-5.291 0-1.205.391-2.917 1.594-4.333 1.593-1.862 4.088-2.526 6.587-2.526 3.246 0 5.353 1.174 6.192 1.656l.119.21-1.115 3.756-.294.091c-.363-.451-.541-.601-1.02-.933a6.17 6.17 0 0 0-3.463-1.083c-1.925 0-3.159 1.048-3.159 2.436 0 1.293.996 1.925 2.858 2.914l.724.36c1.565.901 4.029 2.32 4.029 5.504 0 3.609-2.645 7.244-8.897 7.244-1.538 0-3.04-.238-4.483-.724-.989-.325-1.475-.629-2.073-1.02l-.059-.301zm30.44.06c-1.716 1.415-3.672 1.894-5.958 1.894-1.565 0-3.666-.301-5.109-1.562-1.324-1.146-1.95-2.796-1.95-5.05 0-2.771 1.475-10.015 9.289-10.015 1.89 0 3.816.423 5.227 1.684 1.534 1.388 1.898 3.069 1.898 4.872 0 .992-.157 2.016-.395 3.012-.479 1.978-1.408 3.875-3.002 5.168zm-1.628-8.869c0-1.115-.36-2.673-2.132-2.673-1.412 0-2.135.842-2.463 1.23-1.147 1.471-1.776 4.906-1.776 6.286 0 .72.091 1.115.179 1.321.332.961 1.146 1.44 2.135 1.44.901 0 1.681-.538 2.198-1.171.332-.423.989-1.205 1.565-3.875.147-.755.294-1.629.294-2.562zm18.986 6.133-.958 3.672-.185.206c-.301.119-.57.245-.87.332-.696.238-1.891.42-3.005.42-4.274 0-7.066-2.614-7.066-7.153 0-4.208 2.858-9.474 9.323-9.474.783 0 1.534.091 2.31.245 1.205.237 1.684.569 2.376.989l.063.209-1.02 3.425-.304.091a5.5 5.5 0 0 0-.546-.629c-.597-.538-1.593-.811-2.432-.811-2.827 0-4.602 2.886-4.602 5.647 0 2.946 1.87 3.879 3.397 3.879 1.712 0 2.732-.811 3.218-1.202l.301.147zm7.712-1.171c-.542 2.555-.629 3.187-.961 5.263l-.206.154-5.2.118-.154-.209c.902-3.519 1.08-4.208 1.957-8.055l.329-1.475c.576-2.585.695-3.249 1.02-5.626l.213-.213c2.527-.332 3.096-.419 5.291-.839l.185.207c-.723 2.918-.996 4.029-1.988 8.446l-.479 2.229zm3.009-13.74-.207.245-4.934.688-.181-.21.87-4.06.276-.213 4.958-.664.182.213-.961 4.001zm14.093 14.523c-.213.664-.392 1.321-.577 1.981-.174.608-.293 1.206-.451 1.775l-.146.182c-.752.391-2.163 1.08-5.141 1.08-4.238 0-5.591-1.594-6.132-2.258-1.115-1.352-1.384-2.855-1.384-4.445 0-4.42 2.732-9.924 9.022-9.924 1.381 0 2.796.276 3.785.874 2.201 1.261 2.348 3.487 2.348 4.721 0 1.408-.265 2.551-.51 3.543l-.238.154c-4.357-.032-5.685 0-9.501.087-.031.332-.059.636-.059.968 0 1.768 1.202 2.796 3.637 2.796 1.831 0 3.61-.664 5.081-1.716l.273.182zm-3.068-5.294c.091-.451.185-.902.185-1.353 0-.992-.605-1.985-2.044-1.985-.518 0-1.293.126-2.135.937-.843.783-1.143 1.712-1.381 2.464l5.378-.06zm13.845 9.68-.238.244c-.961.175-1.684.332-2.708.332-2.586 0-4.539-.814-4.539-3.522 0-1.262.569-3.515.992-5.203l.989-4.12-2.104.063-.178-.238.87-3.04.21-.15h1.985l.87-3.883.209-.213c2.258-.507 2.855-.657 4.931-1.261l.178.185-.657 2.495-.664 2.736 3.065-.059.126.206c-.423 1.265-.545 1.597-.933 3.012l-.245.21-2.76-.063-1.262 5.266c-.185.657-.569 2.341-.569 2.855 0 .961.779 1.233 1.408 1.233.783 0 1.205-.185 1.744-.36l.178.147-.902 3.124zm19.205-15.481c-.755 1.171-.874 1.353-1.869 3.093-.93 1.625-2.433 4.179-3.366 5.773l-2.554 4.452c-1.926 3.365-2.163 3.879-5.109 9.651l-.276.207-4.567.059-.119-.213c1.803-2.796 4.357-6.703 4.357-6.916l-.601-4.717-.691-5.235a213 213 0 0 0-.874-6.038l.185-.238c2.191-.031 2.827-.063 5.018-.213l.185.182.238 4.057.423 6.017 2.282-4.385c1.499-3.013 1.684-3.341 2.704-5.504l.238-.21 4.235-.087.158.272zM68.219 114.045c-9.949 0-22.214-6.049-22.054-25.174.238-27.204 17.057-38.775 33.194-37.517-6.573-2.994-18.028-5.234-30.496-4.07-16.448 1.54-29.207 9.026-34.77 22.277-3.323 7.921-4.12 14.355-4.12 21.26 0 29.458 20.778 46.445 48.486 46.445 7.223 0 15.026-1.171 19.513-2.733 1.95-.59 5.661-2.145 5.661-2.145s.867-.423 1.17-1.37c.298-.626 6.07-23.294 6.242-23.805.178-.503-1.17-1.6-1.947-.981-.786.636-9.756 7.81-20.88 7.81z"/><path fill="#00567d" d="M103.545 36.507c-.685-.42-7.615-4.879-15.418-6.444-5.081-.972-9.96-1.552-15.026-1.552-17.542 0-30.979 5.962-40.69 14.904a58 58 0 0 1 6.157-1.72c19.02-4.21 37.933 1.427 51.422 13.496.65.437 4.018 3.764 5.112 5.19.077.105-.028-.007.265.31.294.333 1.762-.045 1.926-.572.15-.532 6.549-22.036 6.632-22.25.098-.202.147-.95-.384-1.359zm142.979 96.419-.772.657-21.704.433-.545-.765 4.469-18.874 1.747-7.631c1.859-8.405 2.076-10.047 2.076-11.347 0-4.033-2.621-4.91-4.368-4.91-2.506 0-4.249 1.202-5.777 2.18l-1.963 11.243-2.181 9.924-3.928 19.09-.765.657-21.491.433-.545-.765 4.144-17.787 1.744-7.52c.545-2.946 1.199-5.783 1.747-8.729.22-1.09.545-2.726.545-4.144 0-4.477-3.491-4.582-4.144-4.582-2.726 0-4.26 1.202-5.458 2.18l-3.705 16.582-4.913 23.675-.758.657-21.823.433-.545-.765 4.48-18.328 3.05-12.43c2.509-11.675 2.946-14.296 4.365-24.552l.769-.766c10.361-1.415 12.437-1.852 22.361-3.707l.653.765-1.53 7.09c1.646-1.418 3.278-2.725 5.13-3.707 1.964-1.202 7.195-3.711 12.433-3.711 3.819 0 9.383 1.09 11.675 7.743 3.711-2.725 10.473-7.743 18.87-7.743 7.206 0 15.488 3.487 15.488 14.292 0 3.274-.755 6.762-1.629 10.144l-2.624 11.675-4.574 22.91zm7.845-6.888 5.766-20.98 1.555-.423c1.828 2.117 2.96 3.239 5.769 5.067 6.196 3.805 12.815 4.644 16.756 4.644 11.406 0 14.649-6.049 14.649-9.715 0-5.21-4.651-7.743-11.259-11.545l-4.648-2.674c-7.321-4.228-17.601-10.424-17.601-25.069 0-11.546 5.633-19.146 8.02-21.683 8.592-9.571 20.844-11.965 31.128-11.965 15.484 0 25.485 5.067 30.685 7.6l.71.986-5.913 21.12-1.408.42c-1.688-1.685-3.379-3.236-5.211-4.505-5.21-3.658-11.972-5.07-15.634-5.07-6.894 0-11.399 3.805-11.399 8.593 0 4.221 3.093 7.177 12.109 11.968l2.816 1.545c6.612 3.662 19.15 10.703 19.15 25.911 0 20.135-15.781 35.057-43.084 35.057-7.471 0-14.938-.986-22.256-3.24-4.784-1.544-6.894-2.669-10.274-4.644l-.422-1.405zm133.761-4.459c-8.505 13.202-23.126 13.527-28.144 13.527-16.26 0-26.184-8.068-26.184-24.328 0-8.729 3.166-19.307 9.054-26.4 7.747-9.055 18-10.365 25.202-10.365s12.982 1.747 15.494 3.162c10.791 5.679 10.791 18.112 10.791 20.73 0 3.927-.321 7.747-1.198 11.454-1.199 4.802-3.166 9.379-5.018 12.217zm-15.596-26.945c0-4.257-1.75-6.982-5.133-6.982-4.253 0-6.43 4.584-6.982 5.566-2.726 5.235-4.686 16.145-4.686 20.618 0 1.855 0 7.527 5.123 7.527 5.671 0 8.729-7.636 10.473-16.693 1.094-5.235 1.205-9.491 1.205-10.037m71.98 21.603c-2.184 7.859-2.394 9.274-3.82 15.599l-.866.766c-4.04 1.307-7.859 2.404-13.422 2.404-18.322 0-27.271-10.91-27.271-26.838 0-15.927 11.343-34.148 34.581-34.148 10.144 0 14.621 2.834 17.347 4.477l.22.87-4.253 14.73-1.097.108c-2.621-3.275-5.56-5.134-9.704-5.134-7.423 0-14.398 6.874-14.398 18.437 0 6.108 2.939 12.112 11.123 12.112 5.238 0 8.289-2.184 10.477-3.823l1.086.437zm-292.955 5.343c-8.513 13.202-23.13 13.527-28.148 13.527-16.253 0-26.18-8.068-26.18-24.328 0-8.729 3.165-19.307 9.057-26.4 7.751-9.055 17.996-10.365 25.202-10.365s12.982 1.747 15.487 3.162c10.802 5.679 10.802 18.112 10.802 20.73 0 3.927-.329 7.747-1.199 11.454-1.198 4.802-3.166 9.379-5.018 12.217zm-15.6-26.945c0-4.257-1.743-6.982-5.129-6.982-4.253 0-6.43 4.584-6.979 5.566-2.726 5.235-4.689 16.145-4.689 20.618 0 1.855 0 7.527 5.122 7.527 5.682 0 8.73-7.636 10.477-16.693 1.09-5.235 1.198-9.491 1.198-10.037m-7.31-84.985c-.227 10.449-.374 20.897-.374 31.345 0 10.98.147 14.464.528 21.425l-.455.454c-6.286 0-7.796 0-13.474.224l-.381-.45c.304-7.874.458-12.494.458-21.425 0-19.304-.231-23.169-.685-31.346l.3-.454c5.452.08 7.195.08 13.709-.224l.374.455zm43.08 43.534-.524 9.233-.612.454h-33.316l-.374-.3c.227-7.95.374-12.72.374-22.26 0-20.29-.147-23.092-.598-30.437l.447-.455h33.24l.374.305-.524 8.781-.381.454c-9.159-.227-10.903-.227-19.457-.227v12.035l18.318-.3.38.454-.45 8.554-.535.455h-17.71l.154 13.25c9.693 0 11.808-.076 20.743-.53l.451.53zm41.035 0-.531 9.233-.601.454h-33.313l-.381-.3c.228-7.95.381-12.72.381-22.26 0-20.29-.153-23.092-.615-30.437l.462-.455h33.242l.374.305-.534 8.781-.374.454c-9.159-.227-10.903-.227-19.45-.227v12.035l18.311-.3.388.454-.458 8.554-.528.455h-17.713l.146 13.25c9.691 0 11.808-.076 20.744-.53l.454.53zm41.036 0-.535 9.233-.597.454h-33.32l-.374-.3c.227-7.95.374-12.72.374-22.26 0-20.29-.147-23.092-.598-30.437l.451-.455h33.236l.388.305-.538 8.781-.378.454c-9.162-.227-10.902-.227-19.464-.227v12.035l18.325-.3.377.454-.45 8.554-.531.455h-17.724l.157 13.25c9.69 0 11.811-.076 20.743-.53l.454.53zm210.01 25.433c-1.317-.028-1.541-.028-2.897-.028-.038 1.58-.038 1.835-.038 3.236 0 3.963.07 5.525.115 6.472l-.098.112c-.898 0-.954 0-1.817.049l-.073-.112c.073-2.209.087-4.42.087-6.626 0-1.614-.024-2.45-.042-3.127-1.373.014-1.534.014-2.942.063l-.087-.109c.024-.552.024-.615.062-1.17l.077-.112c1.136 0 2.943 0 4.082-.014q1.824-.002 3.648-.035l.077.112c-.045.555-.059.727-.059 1.184l-.102.109zm12.252-1.293c.084 3.662.203 7.307.416 10.97l-.084.111c-.793 0-.874.018-1.702.05l-.098-.113c.018-1.782 0-2.334-.042-4.074l-.038-1.67c0-1.119-.018-3.537-.018-4.135-.248.916-.489 1.748-1.149 3.96l-.724 2.289a79 79 0 0 0-1.135 3.581l-.102.112c-.845 0-.919 0-1.827.05l-.098-.113a26 26 0 0 0-.231-.79c-.119-.485-.824-2.84-.982-3.361l-.636-2.209c-.629-2.257-.695-2.512-.908-3.519-.018 1.576-.039 1.926-.084 3.502l-.112 2.827c-.063 1.862-.063 2.275-.084 3.505l-.073.112c-.755 0-.856 0-1.52.049l-.074-.112c.028-.318.06-.647.098-.961.15-1.88.21-3.753.325-5.633.154-2.81.175-2.981.175-4.375l.098-.112c1.146 0 1.432-.014 2.432-.05l.105.113c.286 1.265.552 2.177.866 3.25l1.723 6.377 2.006-6.584c.636-2.05.664-2.128.898-2.998l.098-.112c1.143 0 1.293-.014 2.387-.049l.09.112z"/></svg>